<svg width="211" height="37" viewBox="0 0 211 37" fill="none" xmlns="http://www.w3.org/2000/svg">
<path d="M14.6024 1.65417C15.5539 1.65417 16.2493 1.73957 16.6884 1.91036C17.152 2.05675 17.4814 2.31293 17.6766 2.6789C17.9449 3.24006 18.0791 3.99641 18.0791 4.94794V19.1111C18.0791 21.673 17.152 23.942 15.2977 25.9183C13.4435 27.8701 11.0768 28.8461 8.19782 28.8461C6.58754 28.8461 5.16024 28.4923 3.91592 27.7847C2.7936 27.1748 2.01286 26.6258 1.57369 26.1379L1.28091 25.8451C0.42697 24.9423 0 24.1738 0 23.5394C0 22.8807 0.42697 22.1121 1.28091 21.2338C2.13485 20.3555 2.8912 19.9163 3.54995 19.9163C4.2087 19.9163 4.94065 20.3189 5.7458 21.124C6.55094 21.9291 7.41708 22.3317 8.34421 22.3317C9.29575 22.3317 10.0765 22.0145 10.6864 21.3802C11.2964 20.7458 11.6014 19.9041 11.6014 18.855V5.16753C11.6014 3.70363 11.8454 2.7643 12.3333 2.34953C12.8945 1.88596 13.6508 1.65417 14.6024 1.65417Z" fill="#FFBF1B"/>
<path d="M33.517 11.2427C33.6633 9.8764 34.6271 9.19324 36.4081 9.19324C37.3597 9.19324 38.0672 9.26644 38.5308 9.41283C38.9944 9.55922 39.3115 9.8154 39.4823 10.1814C39.6775 10.5473 39.7873 10.8767 39.8117 11.1695C39.8605 11.4379 39.8849 11.8527 39.8849 12.4138V25.2229C39.8849 25.7841 39.8605 26.211 39.8117 26.5038C39.7873 26.7722 39.6897 27.0894 39.5189 27.4554C39.1774 28.0897 38.3356 28.4069 36.9937 28.4069C35.6762 28.4069 34.7857 28.2483 34.3221 27.9311C33.8829 27.5895 33.6267 27.1016 33.5536 26.4672C32.6508 27.7603 31.1381 28.4069 29.0155 28.4069C26.9172 28.4069 24.9654 27.4432 23.1599 25.5157C21.3544 23.5882 20.4517 21.3558 20.4517 18.8184C20.4517 16.2565 21.3544 14.0241 23.1599 12.121C24.9897 10.1936 26.9904 9.22984 29.1619 9.22984C29.9914 9.22984 30.7477 9.37623 31.4309 9.66901C32.1141 9.96179 32.5898 10.2424 32.8582 10.5108C33.1266 10.7547 33.3462 10.9987 33.517 11.2427ZM26.8562 18.855C26.8562 19.6601 27.1734 20.3921 27.8078 21.0508C28.4421 21.6852 29.2107 22.0023 30.1134 22.0023C31.0161 22.0023 31.7603 21.673 32.3458 21.0142C32.9558 20.3555 33.2608 19.6357 33.2608 18.855C33.2608 18.0498 32.968 17.3057 32.3824 16.6225C31.8213 15.9394 31.0527 15.5978 30.0768 15.5978C29.1253 15.5978 28.3445 15.9394 27.7346 16.6225C27.149 17.3057 26.8562 18.0498 26.8562 18.855Z" fill="#FFBF1B"/>
<path d="M49.0966 11.7551C50.2433 10.0228 51.6218 9.15665 53.2321 9.15665C55.7207 9.15665 57.575 10.218 58.7949 12.3406C59.0633 11.9746 59.3805 11.5965 59.7464 11.2061C60.1368 10.7913 60.7468 10.3522 61.5763 9.8886C62.4059 9.40063 63.2598 9.15665 64.1381 9.15665C66.09 9.15665 67.7247 9.91299 69.0422 11.4257C70.3597 12.914 71.0184 15.3904 71.0184 18.855V25.2595C71.0184 25.8207 70.994 26.2476 70.9453 26.5404C70.9209 26.8088 70.8111 27.126 70.6159 27.492C70.2987 28.1507 69.3594 28.4801 67.7979 28.4801C66.2608 28.4801 65.3214 28.1385 64.9799 27.4554C64.8091 27.0894 64.6993 26.7722 64.6505 26.5038C64.6261 26.211 64.6139 25.7841 64.6139 25.2229V18.8184C64.6139 16.6957 63.8576 15.6344 62.3449 15.6344C61.4909 15.6344 60.9054 15.915 60.5882 16.4761C60.2954 17.0373 60.149 17.8302 60.149 18.855V25.2595C60.149 25.8451 60.1246 26.272 60.0758 26.5404C60.0514 26.8088 59.9416 27.126 59.7464 27.492C59.4049 28.1507 58.4533 28.4801 56.8918 28.4801C55.3547 28.4801 54.4154 28.1385 54.0738 27.4554C53.903 27.0894 53.7933 26.7722 53.7445 26.5038C53.7201 26.211 53.7079 25.7841 53.7079 25.2229V18.8184C53.7079 16.6957 52.9515 15.6344 51.4388 15.6344C49.9749 15.6344 49.243 16.6957 49.243 18.8184V25.2961C49.243 25.8573 49.2186 26.2842 49.1698 26.577C49.1454 26.8454 49.0356 27.1626 48.8404 27.5286C48.4744 28.1629 47.5229 28.4801 45.9858 28.4801C44.4487 28.4801 43.5094 28.1507 43.1678 27.492C42.997 27.126 42.8872 26.8088 42.8384 26.5404C42.814 26.272 42.8018 25.8451 42.8018 25.2595V12.3772C42.8018 11.8161 42.814 11.4013 42.8384 11.1329C42.8872 10.8401 43.0092 10.523 43.2044 10.1814C43.5704 9.52262 44.4365 9.19324 45.8028 9.19324C47.1691 9.19324 48.0597 9.41283 48.4744 9.852C48.8892 10.2912 49.0966 10.9255 49.0966 11.7551Z" fill="#FFBF1B"/>
<path d="M95.0405 2.52522C95.2357 2.15925 95.5651 1.90307 96.0287 1.75668C96.4922 1.61029 97.0778 1.53709 97.7854 1.53709C98.4929 1.53709 99.0541 1.59809 99.4688 1.72008C99.8836 1.84207 100.201 1.98846 100.42 2.15925C100.64 2.33004 100.811 2.57402 100.933 2.8912C101.055 3.30597 101.116 3.94032 101.116 4.79426V25.1058C101.116 25.667 101.091 26.094 101.043 26.3867C101.018 26.6551 100.908 26.9723 100.713 27.3383C100.372 27.997 99.42 28.3264 97.8586 28.3264C96.1507 28.3264 95.1503 27.875 94.8576 26.9723C94.7112 26.5575 94.638 25.9232 94.638 25.0692V17.64H84.9397V25.1058C84.9397 25.667 84.9153 26.094 84.8665 26.3867C84.8421 26.6551 84.7323 26.9723 84.5371 27.3383C84.1955 27.997 83.244 28.3264 81.6825 28.3264C79.9746 28.3264 78.9743 27.875 78.6815 26.9723C78.5351 26.5575 78.4619 25.9232 78.4619 25.0692V4.75767C78.4619 4.1965 78.4741 3.78173 78.4985 3.51335C78.5473 3.22057 78.6693 2.8912 78.8645 2.52522C79.2061 1.86647 80.1576 1.53709 81.7191 1.53709C83.427 1.53709 84.4395 1.98846 84.7567 2.8912C84.8787 3.30597 84.9397 3.94032 84.9397 4.79426V12.2601H94.638V4.75767C94.638 4.1965 94.6502 3.78173 94.6746 3.51335C94.7234 3.22057 94.8454 2.8912 95.0405 2.52522Z" fill="#9C4DEC"/>
<path d="M103.503 18.7379C103.503 15.8101 104.527 13.3947 106.577 11.4916C108.626 9.58853 110.968 8.63699 113.603 8.63699C116.238 8.63699 118.568 9.58853 120.594 11.4916C122.619 13.3703 123.631 15.7735 123.631 18.7013C123.631 20.7263 123.107 22.5318 122.057 24.1177C121.008 25.6792 119.727 26.8381 118.215 27.5945C116.726 28.3264 115.177 28.6924 113.567 28.6924C111.957 28.6924 110.395 28.302 108.882 27.5213C107.37 26.7161 106.089 25.545 105.04 24.0079C104.015 22.4464 103.503 20.6897 103.503 18.7379ZM111.151 21.3729C111.932 21.9585 112.725 22.2512 113.53 22.2512C114.335 22.2512 115.141 21.9463 115.946 21.3363C116.751 20.7263 117.153 19.8236 117.153 18.6281C117.153 17.4326 116.775 16.542 116.019 15.9565C115.263 15.3709 114.445 15.0781 113.567 15.0781C112.689 15.0781 111.871 15.3831 111.115 15.9931C110.358 16.603 109.98 17.5058 109.98 18.7013C109.98 19.8724 110.371 20.7629 111.151 21.3729Z" fill="#9C4DEC"/>
<path d="M125.996 3.22057C125.996 2.65941 126.008 2.24464 126.032 1.97626C126.081 1.68348 126.191 1.3541 126.362 0.988131C126.703 0.329377 127.655 0 129.216 0C130.705 0 131.632 0.329377 131.998 0.988131C132.193 1.3541 132.303 1.68348 132.327 1.97626C132.376 2.26904 132.4 2.69601 132.4 3.25717V20.2018C132.4 21.0801 132.473 21.6413 132.62 21.8853C132.766 22.1048 133.083 22.2146 133.571 22.2146C134.084 22.2146 134.425 22.239 134.596 22.2878C134.767 22.3122 134.974 22.4098 135.218 22.5806C135.706 22.8978 135.95 23.7639 135.95 25.179C135.95 26.7161 135.706 27.6555 135.218 27.997C134.584 28.4362 133.071 28.5094 130.68 28.2166C128.801 27.9726 127.582 27.3505 127.02 26.3501C126.337 25.1546 125.996 23.2516 125.996 20.6409V3.22057Z" fill="#9C4DEC"/>
<path d="M137.968 12.2967C137.968 11.7356 137.981 11.3208 138.005 11.0524C138.054 10.7596 138.164 10.4303 138.334 10.0643C138.676 9.42994 139.628 9.11276 141.189 9.11276C142.36 9.11276 143.19 9.32014 143.678 9.73492C144.092 10.0765 144.312 10.6011 144.336 11.3086C144.361 11.5526 144.373 11.9064 144.373 12.3699V25.179C144.373 25.7402 144.349 26.1672 144.3 26.4599C144.275 26.7283 144.166 27.0455 143.97 27.4115C143.653 28.0458 142.714 28.363 141.152 28.363C139.615 28.363 138.676 28.0336 138.334 27.3749C138.164 27.0089 138.054 26.6917 138.005 26.4233C137.981 26.155 137.968 25.728 137.968 25.1424V12.2967ZM143.97 5.52621C143.8 5.86779 143.482 6.11177 143.019 6.25816C142.555 6.40455 141.933 6.47774 141.152 6.47774C140.396 6.47774 139.786 6.40455 139.323 6.25816C138.859 6.11177 138.53 5.85559 138.334 5.48961C138.164 5.12364 138.054 4.80646 138.005 4.53808C137.981 4.2453 137.968 3.81833 137.968 3.25717C137.968 2.69601 137.981 2.28124 138.005 2.01286C138.054 1.72008 138.164 1.4029 138.334 1.06132C138.676 0.402571 139.628 0.0731939 141.189 0.0731939C142.726 0.0731939 143.653 0.402571 143.97 1.06132C144.166 1.4273 144.275 1.75668 144.3 2.04946C144.349 2.31784 144.373 2.73261 144.373 3.29377C144.373 3.85493 144.349 4.2819 144.3 4.57468C144.275 4.84306 144.166 5.16024 143.97 5.52621Z" fill="#9C4DEC"/>
<path d="M160.215 1.06132C160.411 0.695351 160.74 0.439169 161.204 0.29278C161.667 0.146389 162.277 0.0731939 163.033 0.0731939C163.814 0.0731939 164.436 0.146389 164.9 0.29278C165.363 0.439169 165.681 0.695351 165.851 1.06132C166.047 1.4273 166.156 1.75668 166.181 2.04946C166.23 2.31784 166.254 2.73261 166.254 3.29377V25.1424C166.254 25.7036 166.23 26.1306 166.181 26.4233C166.156 26.6917 166.047 26.9967 165.851 27.3383C165.485 27.997 164.449 28.3264 162.741 28.3264C161.057 28.3264 160.118 27.7287 159.923 26.5331C158.898 27.7043 157.471 28.2898 155.641 28.2898C153.445 28.2898 151.444 27.3383 149.639 25.4352C147.833 23.5077 146.931 21.2753 146.931 18.7379C146.931 16.1761 147.833 13.9314 149.639 12.004C151.469 10.0765 153.469 9.11276 155.641 9.11276C157.446 9.11276 158.849 9.72272 159.849 10.9426V3.25717C159.849 2.69601 159.862 2.28124 159.886 2.01286C159.935 1.72008 160.045 1.4029 160.215 1.06132ZM154.287 20.9337C154.921 21.5925 155.69 21.9219 156.592 21.9219C157.495 21.9219 158.239 21.5925 158.825 20.9337C159.435 20.275 159.74 19.5552 159.74 18.7745C159.74 17.9693 159.447 17.2252 158.861 16.542C158.3 15.8589 157.532 15.5173 156.556 15.5173C155.58 15.5173 154.799 15.8589 154.213 16.542C153.628 17.2008 153.335 17.9327 153.335 18.7379C153.335 19.543 153.652 20.275 154.287 20.9337Z" fill="#9C4DEC"/>
<path d="M181.686 11.1256C181.832 9.75931 182.796 9.07616 184.577 9.07616C185.528 9.07616 186.236 9.14936 186.699 9.29575C187.163 9.44214 187.48 9.69832 187.651 10.0643C187.846 10.4303 187.956 10.7596 187.98 11.0524C188.029 11.3208 188.053 11.7356 188.053 12.2967V25.1058C188.053 25.667 188.029 26.094 187.98 26.3867C187.956 26.6551 187.858 26.9723 187.687 27.3383C187.346 27.9726 186.504 28.2898 185.162 28.2898C183.845 28.2898 182.954 28.1312 182.491 27.814C182.051 27.4725 181.795 26.9845 181.722 26.3501C180.819 27.6433 179.307 28.2898 177.184 28.2898C175.086 28.2898 173.134 27.3261 171.328 25.3986C169.523 23.4711 168.62 21.2387 168.62 18.7013C168.62 16.1395 169.523 13.907 171.328 12.004C173.158 10.0765 175.159 9.11276 177.33 9.11276C178.16 9.11276 178.916 9.25915 179.599 9.55193C180.283 9.84471 180.758 10.1253 181.027 10.3937C181.295 10.6377 181.515 10.8816 181.686 11.1256ZM175.025 18.7379C175.025 19.543 175.342 20.275 175.976 20.9337C176.611 21.5681 177.379 21.8853 178.282 21.8853C179.185 21.8853 179.929 21.5559 180.514 20.8971C181.124 20.2384 181.429 19.5186 181.429 18.7379C181.429 17.9327 181.137 17.1886 180.551 16.5054C179.99 15.8223 179.221 15.4807 178.245 15.4807C177.294 15.4807 176.513 15.8223 175.903 16.5054C175.318 17.1886 175.025 17.9327 175.025 18.7379Z" fill="#9C4DEC"/>
<path d="M208.188 9.29575C209.628 9.9301 210.348 10.6986 210.348 11.6014C210.348 12.0406 210.25 12.4553 210.055 12.8457C209.86 13.2361 209.762 13.4435 209.762 13.4679L200.174 34.9139C199.978 35.3775 199.808 35.7313 199.661 35.9753C199.539 36.2193 199.332 36.451 199.039 36.6706C198.746 36.8902 198.38 37 197.941 37C197.502 37 196.855 36.817 196.001 36.451C194.562 35.8167 193.842 35.0603 193.842 34.182C193.842 33.5964 195.013 30.8028 197.356 25.8012L190.073 13.541C189.585 12.7359 189.341 12.1381 189.341 11.7478C189.341 10.967 189.999 10.1863 191.317 9.40554C192.146 8.91757 192.793 8.67359 193.257 8.67359C193.72 8.67359 194.098 8.77118 194.391 8.96637C194.684 9.16156 194.891 9.36894 195.013 9.58853C195.16 9.78371 195.831 10.9182 197.026 12.9921C198.246 15.0415 199.405 16.9568 200.503 18.7379C200.625 18.3475 201.284 16.847 202.479 14.2364C203.675 11.6014 204.309 10.1985 204.382 10.0277C204.48 9.85691 204.626 9.64952 204.821 9.40554C205.139 8.99077 205.578 8.78338 206.139 8.78338C206.724 8.78338 207.408 8.95417 208.188 9.29575Z" fill="#9C4DEC"/>
</svg>
