<svg width="320" height="44" viewBox="0 0 320 44" fill="none" xmlns="http://www.w3.org/2000/svg">
<path d="M0 22C0 9.84974 9.84974 0 22 0H298C310.15 0 320 9.84974 320 22V22C320 34.1503 310.15 44 298 44H22C9.84974 44 0 34.1503 0 22V22Z" fill="url(#paint0_linear_18402:36)"/>
<path d="M298 13.9844L306.016 22L298 30.0156L296.594 28.6094L302.172 22.9844H289.984V21.0156H302.172L296.594 15.3906L298 13.9844Z" fill="white"/>
<path d="M143.667 21.62C144.179 21.772 144.571 22.02 144.843 22.364C145.115 22.708 145.251 23.132 145.251 23.636C145.251 24.38 144.967 24.96 144.399 25.376C143.839 25.792 143.035 26 141.987 26H137.847V17.6H141.759C142.735 17.6 143.495 17.788 144.039 18.164C144.583 18.54 144.855 19.076 144.855 19.772C144.855 20.188 144.751 20.556 144.543 20.876C144.335 21.188 144.043 21.436 143.667 21.62ZM139.779 21.08H141.591C142.015 21.08 142.335 20.996 142.551 20.828C142.767 20.652 142.875 20.396 142.875 20.06C142.875 19.732 142.763 19.48 142.539 19.304C142.323 19.128 142.007 19.04 141.591 19.04H139.779V21.08ZM141.915 24.56C142.827 24.56 143.283 24.2 143.283 23.48C143.283 22.784 142.827 22.436 141.915 22.436H139.779V24.56H141.915ZM150.796 26.144C149.924 26.144 149.136 25.956 148.432 25.58C147.736 25.204 147.188 24.688 146.788 24.032C146.396 23.368 146.2 22.624 146.2 21.8C146.2 20.976 146.396 20.236 146.788 19.58C147.188 18.916 147.736 18.396 148.432 18.02C149.136 17.644 149.924 17.456 150.796 17.456C151.668 17.456 152.452 17.644 153.148 18.02C153.844 18.396 154.392 18.916 154.792 19.58C155.192 20.236 155.392 20.976 155.392 21.8C155.392 22.624 155.192 23.368 154.792 24.032C154.392 24.688 153.844 25.204 153.148 25.58C152.452 25.956 151.668 26.144 150.796 26.144ZM150.796 24.488C151.292 24.488 151.74 24.376 152.14 24.152C152.54 23.92 152.852 23.6 153.076 23.192C153.308 22.784 153.424 22.32 153.424 21.8C153.424 21.28 153.308 20.816 153.076 20.408C152.852 20 152.54 19.684 152.14 19.46C151.74 19.228 151.292 19.112 150.796 19.112C150.3 19.112 149.852 19.228 149.452 19.46C149.052 19.684 148.736 20 148.504 20.408C148.28 20.816 148.168 21.28 148.168 21.8C148.168 22.32 148.28 22.784 148.504 23.192C148.736 23.6 149.052 23.92 149.452 24.152C149.852 24.376 150.3 24.488 150.796 24.488ZM156.89 17.6H158.822V23.072L162.83 17.6H164.654V26H162.734V20.54L158.726 26H156.89V17.6ZM160.766 17.06C159.23 17.06 158.454 16.448 158.438 15.224H159.77C159.786 15.808 160.118 16.1 160.766 16.1C161.086 16.1 161.33 16.028 161.498 15.884C161.666 15.732 161.754 15.512 161.762 15.224H163.094C163.086 15.824 162.89 16.28 162.506 16.592C162.122 16.904 161.542 17.06 160.766 17.06ZM173.165 19.184H170.477V26H168.557V19.184H165.881V17.6H173.165V19.184ZM174.386 17.6H176.318V23.072L180.326 17.6H182.15V26H180.23V20.54L176.222 26H174.386V17.6Z" fill="white"/>
<defs>
<linearGradient id="paint0_linear_18402:36" x1="160" y1="0" x2="160" y2="44" gradientUnits="userSpaceOnUse">
<stop stop-color="#BC9CFF"/>
<stop offset="1" stop-color="#8BA4F9"/>
</linearGradient>
</defs>
</svg>
