<svg width="99" height="44" viewBox="0 0 99 44" fill="none" xmlns="http://www.w3.org/2000/svg">
<path d="M1 22C1 10.402 10.402 1 22 1H77C88.598 1 98 10.402 98 22C98 33.598 88.598 43 77 43H22C10.402 43 1 33.598 1 22Z" stroke="url(#paint0_linear_18402:116)" stroke-width="2"/>
<path d="M23.1312 26.144C22.2752 26.144 21.4992 25.96 20.8032 25.592C20.1152 25.216 19.5712 24.7 19.1712 24.044C18.7792 23.38 18.5832 22.632 18.5832 21.8C18.5832 20.968 18.7792 20.224 19.1712 19.568C19.5712 18.904 20.1152 18.388 20.8032 18.02C21.4992 17.644 22.2792 17.456 23.1432 17.456C23.8712 17.456 24.5272 17.584 25.1112 17.84C25.7032 18.096 26.1992 18.464 26.5992 18.944L25.3512 20.096C24.7832 19.44 24.0792 19.112 23.2392 19.112C22.7192 19.112 22.2552 19.228 21.8472 19.46C21.4392 19.684 21.1192 20 20.8872 20.408C20.6632 20.816 20.5512 21.28 20.5512 21.8C20.5512 22.32 20.6632 22.784 20.8872 23.192C21.1192 23.6 21.4392 23.92 21.8472 24.152C22.2552 24.376 22.7192 24.488 23.2392 24.488C24.0792 24.488 24.7832 24.156 25.3512 23.492L26.5992 24.644C26.1992 25.132 25.7032 25.504 25.1112 25.76C24.5192 26.016 23.8592 26.144 23.1312 26.144ZM31.6985 26.144C30.8265 26.144 30.0385 25.956 29.3345 25.58C28.6385 25.204 28.0905 24.688 27.6905 24.032C27.2985 23.368 27.1025 22.624 27.1025 21.8C27.1025 20.976 27.2985 20.236 27.6905 19.58C28.0905 18.916 28.6385 18.396 29.3345 18.02C30.0385 17.644 30.8265 17.456 31.6985 17.456C32.5705 17.456 33.3545 17.644 34.0505 18.02C34.7465 18.396 35.2945 18.916 35.6945 19.58C36.0945 20.236 36.2945 20.976 36.2945 21.8C36.2945 22.624 36.0945 23.368 35.6945 24.032C35.2945 24.688 34.7465 25.204 34.0505 25.58C33.3545 25.956 32.5705 26.144 31.6985 26.144ZM31.6985 24.488C32.1945 24.488 32.6425 24.376 33.0425 24.152C33.4425 23.92 33.7545 23.6 33.9785 23.192C34.2105 22.784 34.3265 22.32 34.3265 21.8C34.3265 21.28 34.2105 20.816 33.9785 20.408C33.7545 20 33.4425 19.684 33.0425 19.46C32.6425 19.228 32.1945 19.112 31.6985 19.112C31.2025 19.112 30.7545 19.228 30.3545 19.46C29.9545 19.684 29.6385 20 29.4065 20.408C29.1825 20.816 29.0705 21.28 29.0705 21.8C29.0705 22.32 29.1825 22.784 29.4065 23.192C29.6385 23.6 29.9545 23.92 30.3545 24.152C30.7545 24.376 31.2025 24.488 31.6985 24.488ZM42.3337 21.62C42.8217 21.788 43.2017 22.052 43.4737 22.412C43.7537 22.764 43.8937 23.176 43.8937 23.648C43.8937 24.16 43.7257 24.604 43.3897 24.98C43.0537 25.356 42.5977 25.644 42.0217 25.844C41.4537 26.044 40.8297 26.144 40.1497 26.144C39.5737 26.144 38.9977 26.072 38.4217 25.928C37.8537 25.784 37.3137 25.564 36.8017 25.268L37.4017 23.876C37.7697 24.1 38.1737 24.272 38.6137 24.392C39.0617 24.504 39.4977 24.56 39.9217 24.56C40.4977 24.56 40.9737 24.456 41.3497 24.248C41.7337 24.04 41.9257 23.748 41.9257 23.372C41.9257 23.06 41.7937 22.824 41.5297 22.664C41.2737 22.504 40.9217 22.424 40.4737 22.424H38.4217V20.96H40.3297C40.7217 20.96 41.0257 20.88 41.2417 20.72C41.4657 20.56 41.5777 20.34 41.5777 20.06C41.5777 19.732 41.4177 19.476 41.0977 19.292C40.7857 19.108 40.3817 19.016 39.8857 19.016C39.5177 19.016 39.1377 19.068 38.7457 19.172C38.3537 19.268 37.9817 19.416 37.6297 19.616L37.0417 18.104C37.9297 17.648 38.8897 17.42 39.9217 17.42C40.5777 17.42 41.1817 17.516 41.7337 17.708C42.2857 17.9 42.7257 18.18 43.0537 18.548C43.3817 18.916 43.5457 19.344 43.5457 19.832C43.5457 20.232 43.4377 20.588 43.2217 20.9C43.0057 21.212 42.7097 21.452 42.3337 21.62ZM54.0967 24.416V27.74H52.2967V26H46.3687V27.74H44.5687L44.5807 24.416H44.9167C45.4207 24.4 45.7767 24.032 45.9847 23.312C46.1927 22.592 46.3207 21.564 46.3687 20.228L46.4647 17.6H52.9207V24.416H54.0967ZM48.0847 20.408C48.0447 21.408 47.9607 22.248 47.8327 22.928C47.7047 23.6 47.5087 24.096 47.2447 24.416H51.0007V19.184H48.1207L48.0847 20.408ZM61.1636 24.2H57.2636L56.5196 26H54.5276L58.2716 17.6H60.1916L63.9476 26H61.9076L61.1636 24.2ZM60.5516 22.724L59.2196 19.508L57.8876 22.724H60.5516ZM71.0597 19.184H68.3717V26H66.4517V19.184H63.7757V17.6H71.0597V19.184ZM76.3483 20.36C77.3723 20.36 78.1563 20.588 78.7003 21.044C79.2523 21.5 79.5283 22.176 79.5283 23.072C79.5283 24.024 79.2243 24.752 78.6163 25.256C78.0163 25.752 77.1683 26 76.0723 26H72.2803V17.6H74.2123V20.36H76.3483ZM75.9643 24.56C76.4683 24.56 76.8603 24.436 77.1403 24.188C77.4283 23.94 77.5723 23.58 77.5723 23.108C77.5723 22.236 77.0363 21.8 75.9643 21.8H74.2123V24.56H75.9643Z" fill="#BC9CFF"/>
<defs>
<linearGradient id="paint0_linear_18402:116" x1="49.5" y1="0" x2="49.5" y2="44" gradientUnits="userSpaceOnUse">
<stop stop-color="#BC9CFF"/>
<stop offset="1" stop-color="#8BA4F9"/>
</linearGradient>
</defs>
</svg>
